<svg width="29" height="29" viewBox="0 0 29 29" fill="none" xmlns="http://www.w3.org/2000/svg">
<path fill-rule="evenodd" clip-rule="evenodd" d="M11.583 1.37492C11.583 0.972211 11.9095 0.645752 12.3122 0.645752H16.6872C17.0899 0.645752 17.4163 0.972211 17.4163 1.37492V3.9558C18.2906 4.19715 19.1209 4.54423 19.8925 4.9823L21.7181 3.15675C22.0028 2.87199 22.4645 2.87199 22.7493 3.15675L25.8428 6.25034C25.9796 6.38709 26.0564 6.57255 26.0564 6.76594C26.0564 6.95933 25.9796 7.14479 25.8428 7.28154L24.0173 9.10709C24.4554 9.87866 24.8024 10.7089 25.0438 11.5833H27.6247C28.0274 11.5833 28.3538 11.9097 28.3538 12.3124V16.6874C28.3538 17.0901 28.0274 17.4166 27.6247 17.4166H25.0438C24.8024 18.2909 24.4554 19.1212 24.0173 19.8928L25.8428 21.7183C26.1276 22.0031 26.1276 22.4647 25.8428 22.7495L22.7493 25.8431C22.4645 26.1278 22.0028 26.1278 21.7181 25.8431L19.8925 24.0175C19.1209 24.4556 18.2906 24.8027 17.4163 25.044V27.6249C17.4163 28.0276 17.0899 28.3541 16.6872 28.3541H12.3122C11.9095 28.3541 11.583 28.0276 11.583 27.6249V25.044C10.7087 24.8027 9.87842 24.4556 9.10684 24.0175L7.28129 25.8431C7.14455 25.9798 6.95908 26.0567 6.76569 26.0567C6.57231 26.0567 6.38684 25.9798 6.2501 25.8431L3.1565 22.7495C2.87175 22.4647 2.87175 22.0031 3.1565 21.7183L4.98205 19.8928C4.54399 19.1212 4.1969 18.2909 3.95556 17.4166H1.37467C0.971967 17.4166 0.645508 17.0901 0.645508 16.6874V12.3124C0.645508 11.9097 0.971967 11.5833 1.37467 11.5833H3.95556C4.1969 10.7089 4.54399 9.87866 4.98205 9.10709L3.1565 7.28154C2.87175 6.99678 2.87175 6.5351 3.1565 6.25034L6.2501 3.15675C6.53485 2.87199 6.99654 2.87199 7.28129 3.15675L9.10684 4.9823C9.87842 4.54423 10.7087 4.19715 11.583 3.9558V1.37492ZM13.0413 2.10409V4.52651C13.0413 4.86928 12.8026 5.16578 12.4677 5.23889C11.3561 5.48158 10.3172 5.91948 9.38859 6.51523C9.10009 6.70032 8.72163 6.65948 8.47926 6.41711L6.76569 4.70354L4.7033 6.76594L6.41686 8.4795C6.65923 8.72187 6.70007 9.10033 6.51499 9.38883C5.91923 10.3175 5.48134 11.3563 5.23865 12.4679C5.16554 12.8028 4.86904 13.0416 4.52626 13.0416H2.10384V15.9583H4.52626C4.86904 15.9583 5.16554 16.197 5.23865 16.5319C5.48134 17.6435 5.91923 18.6824 6.51499 19.611C6.70007 19.8995 6.65923 20.278 6.41686 20.5203L4.7033 22.2339L6.76569 24.2963L8.47926 22.5827C8.72163 22.3404 9.10009 22.2995 9.38859 22.4846C10.3172 23.0804 11.3561 23.5183 12.4677 23.7609C12.8026 23.8341 13.0413 24.1306 13.0413 24.4733V26.8958H15.958V24.4733C15.958 24.1306 16.1968 23.8341 16.5316 23.7609C17.6432 23.5183 18.6821 23.0804 19.6108 22.4846C19.8993 22.2995 20.2777 22.3404 20.5201 22.5827L22.2337 24.2963L24.296 22.2339L22.5825 20.5203C22.3401 20.278 22.2993 19.8995 22.4844 19.611C23.0801 18.6824 23.518 17.6435 23.7607 16.5319C23.8338 16.197 24.1303 15.9583 24.4731 15.9583H26.8955V13.0416H24.4731C24.1303 13.0416 23.8338 12.8028 23.7607 12.4679C23.518 11.3563 23.0801 10.3175 22.4844 9.38883C22.2993 9.10033 22.3401 8.72187 22.5825 8.4795L24.296 6.76594L22.2337 4.70354L20.5201 6.41711C20.2777 6.65948 19.8993 6.70032 19.6108 6.51523C18.6821 5.91948 17.6432 5.48158 16.5316 5.23889C16.1968 5.16578 15.958 4.86928 15.958 4.52651V2.10409H13.0413Z" fill="white"/>
<path fill-rule="evenodd" clip-rule="evenodd" d="M14.4997 10.8541C12.4861 10.8541 10.8538 12.4864 10.8538 14.4999C10.8538 16.5135 12.4861 18.1458 14.4997 18.1458C16.5132 18.1458 18.1455 16.5135 18.1455 14.4999C18.1455 12.4864 16.5132 10.8541 14.4997 10.8541ZM9.39551 14.4999C9.39551 11.681 11.6807 9.39575 14.4997 9.39575C17.3186 9.39575 19.6038 11.681 19.6038 14.4999C19.6038 17.3189 17.3186 19.6041 14.4997 19.6041C11.6807 19.6041 9.39551 17.3189 9.39551 14.4999Z" fill="#69BCB2"/>
</svg>
