<?xml version="1.0" encoding="UTF-8"?>
<svg id="_Слой_5" data-name="Слой 5" xmlns="http://www.w3.org/2000/svg" viewBox="0 0 1033.1 525.8">
  <defs>
    <style>
      .cls-1 {
        fill: #fff;
      }

      .cls-1, .cls-2 {
        stroke-width: 0px;
      }

      .cls-2 {
        fill: #1c8c8c;
      }
    </style>
  </defs>
  <rect class="cls-2" x="741.14" width="11.23" height="525.8"/>
  <path class="cls-2" d="m945.57,261.21c-.02,25.89-5.06,51.82-14.92,75.79-9.83,23.98-24.41,45.99-42.63,64.41-18.19,18.45-40.07,33.26-63.99,43.29-23.91,10.05-49.85,15.22-75.76,15.23-25.91.06-51.88-5.04-75.84-15.04-23.97-9.97-45.93-24.74-64.21-43.18-18.29-18.43-32.94-40.47-42.83-64.5-9.92-24.02-15.02-50.01-15.08-75.99.06-25.98,5.15-51.97,15.08-75.99,9.89-24.03,24.54-46.07,42.83-64.5,18.28-18.44,40.24-33.21,64.21-43.18,23.96-10,49.93-15.09,75.84-15.04,25.92.01,51.86,5.18,75.76,15.23,23.92,10.02,45.8,24.84,63.99,43.29,18.23,18.42,32.81,40.42,42.63,64.41,9.86,23.97,14.9,49.89,14.92,75.79Zm-14,0c0-24.12-4.68-48.2-13.83-70.49-9.12-22.3-22.67-42.78-39.61-59.92-16.93-17.15-37.29-30.9-59.5-40.2-22.21-9.32-46.27-14.1-70.37-14.1-24.1.07-48.13,4.92-70.29,14.29-22.16,9.35-42.43,23.14-59.28,40.3-16.88,17.13-30.36,37.58-39.42,59.83-9.09,22.24-13.71,46.26-13.68,70.29-.03,24.04,4.59,48.05,13.68,70.29,9.06,22.25,22.54,42.7,39.42,59.83,16.85,17.16,37.12,30.95,59.28,40.3,22.15,9.37,46.19,14.22,70.29,14.29,24.1,0,48.16-4.78,70.37-14.1,22.21-9.29,42.56-23.04,59.5-40.2,16.94-17.14,30.49-37.62,39.61-59.92,9.15-22.29,13.82-46.38,13.83-70.49Z"/>
  <path class="cls-2" d="m893.41,262.08c-.02,18.93-3.7,37.88-10.92,55.41-7.19,17.53-17.85,33.62-31.18,47.09-13.3,13.49-29.3,24.32-46.79,31.66-17.48,7.36-36.46,11.13-55.41,11.15-18.95.06-37.95-3.65-55.49-10.95-17.54-7.28-33.62-18.07-47-31.55-13.39-13.48-24.12-29.59-31.37-47.18-7.27-17.58-11.02-36.6-11.07-55.61.05-19.01,3.8-38.04,11.07-55.61,7.25-17.59,17.98-33.7,31.37-47.18,13.39-13.48,29.46-24.28,47-31.55,17.54-7.3,36.54-11.01,55.49-10.95,18.95.01,37.92,3.79,55.41,11.15,17.49,7.33,33.49,18.17,46.79,31.66,13.33,13.46,23.99,29.55,31.18,47.09,7.21,17.53,10.9,36.48,10.92,55.41Zm-14,0c0-17.15-3.32-34.27-9.82-50.12-6.48-15.85-16.11-30.41-28.15-42.6-12.04-12.19-26.51-21.97-42.3-28.57-15.78-6.62-32.88-10.01-50.01-10.01-17.13.07-34.2,3.53-49.93,10.21-15.73,6.66-30.12,16.47-42.08,28.67-11.98,12.18-21.54,26.71-27.96,42.51-6.44,15.8-9.71,32.84-9.67,49.91-.04,17.07,3.23,34.12,9.67,49.91,6.42,15.8,15.98,30.33,27.96,42.51,11.95,12.2,26.34,22.01,42.08,28.67,15.73,6.67,32.8,10.14,49.93,10.21,17.13,0,34.23-3.39,50.01-10.01,15.79-6.6,30.25-16.37,42.3-28.57,12.04-12.19,21.67-26.75,28.15-42.6,6.5-15.85,9.82-32.96,9.82-50.12Z"/>
  <rect class="cls-2" x="0" y="231.8" width="676.4" height="60.71" rx="29" ry="29"/>
  <rect class="cls-2" x="630.17" y="175.59" width="402.94" height="173.06" rx="83.23" ry="83.23"/>
  <g>
    <path class="cls-1" d="m31.78,281.28c-4.35-4.15-6.52-10.56-6.52-19.25s2.17-15.1,6.52-19.27c4.35-4.16,10.87-6.24,19.56-6.24h7.84c5.32,0,10.02,1.38,14.12,4.15,4.09,2.77,6.13,6.55,6.13,11.36,0,1.38-.41,2.37-1.23,2.97-.82.6-1.62.9-2.39.9h-4.18c-2.16,0-3.83-1.29-5.03-3.87-1.73-3.7-4.62-5.55-8.65-5.55h-6.26c-5.13,0-8.61,1.1-10.44,3.3-1.83,2.2-2.74,6.28-2.74,12.23s.91,10.04,2.74,12.25,5.31,3.32,10.44,3.32h7c4.03,0,6.9-1.85,8.61-5.55,1.2-2.6,2.88-3.9,5.06-3.9h4.18c1.1,0,1.97.41,2.62,1.23.64.82.97,1.71.97,2.67,0,4.8-2.04,8.58-6.12,11.34-4.08,2.75-8.78,4.13-14.1,4.13h-8.58c-8.7,0-15.22-2.07-19.56-6.22Z"/>
    <path class="cls-1" d="m81.94,243.45v-3.3c0-.96.32-1.76.95-2.39s1.43-.95,2.39-.95h44.61c.96,0,1.76.32,2.39.95s.95,1.43.95,2.39v3.3c0,.96-.32,1.75-.95,2.37-.63.62-1.43.93-2.39.93h-15.68v37.23c0,.91-.32,1.68-.97,2.3-.65.62-1.42.93-2.34.93h-6.64c-.91,0-1.69-.31-2.34-.93-.65-.62-.97-1.39-.97-2.3v-37.23h-15.68c-.96,0-1.76-.31-2.39-.93-.63-.62-.95-1.41-.95-2.37Z"/>
    <path class="cls-1" d="m138.96,283.91v-43.77c0-.91.32-1.7.95-2.36.63-.66,1.41-.98,2.32-.98h26.82c14.18,0,21.27,6.53,21.27,19.6s-7.09,19.6-21.27,19.6h-16.84v7.91c0,.91-.32,1.69-.97,2.34s-1.42.97-2.34.97h-6.61c-.91,0-1.7-.32-2.36-.97-.66-.64-.98-1.42-.98-2.34Zm13.25-17.86h12.83c3.94,0,6.93-.66,8.96-1.99,2.04-1.32,3.06-3.88,3.06-7.66s-1.02-6.34-3.06-7.66c-2.04-1.32-5.03-1.99-8.96-1.99h-12.83v19.3Z"/>
    <path class="cls-1" d="m196.79,283.84v-43.77c0-.91.33-1.69.98-2.32.66-.63,1.44-.95,2.36-.95h40.54c.91,0,1.69.33,2.34.98.64.66.97,1.44.97,2.36v3.3c0,.91-.32,1.69-.97,2.34s-1.42.97-2.34.97h-30.62v10.23h26.37c.91,0,1.69.32,2.34.97.64.65.97,1.42.97,2.34v3.3c0,.91-.32,1.69-.97,2.34s-1.42.97-2.34.97h-26.37v10.37h30.55c.89,0,1.65.32,2.29.95s.95,1.41.95,2.32v3.38c0,.91-.33,1.69-.98,2.34-.66.65-1.44.97-2.36.97h-40.36c-.91,0-1.7-.32-2.36-.97-.66-.64-.98-1.45-.98-2.41Z"/>
    <path class="cls-1" d="m246.29,284.27l8.93-33.75c2.39-9.12,10.16-13.69,23.31-13.71h17.58c.82,0,1.52.34,2.09,1.02.57.68.86,1.45.86,2.32v43.77c0,.91-.31,1.69-.93,2.34-.62.65-1.39.97-2.3.97h-6.71c-.91,0-1.69-.32-2.34-.97-.65-.64-.97-1.42-.97-2.34v-37.16h-8.58c-2.25,0-4.21.64-5.89,1.92-1.68,1.28-2.81,2.99-3.39,5.15l-8.05,30.09c-.23.96-.76,1.75-1.58,2.37-.82.62-1.69.93-2.6.93h-7.14c-.82,0-1.42-.26-1.81-.77-.39-.52-.57-.95-.56-1.3.01-.35.04-.64.09-.88Z"/>
    <path class="cls-1" d="m361.29,285.67c0,1.03-.61,1.55-1.83,1.55h-8.05c-.91,0-1.9-.32-2.95-.97-1.05-.64-1.88-1.42-2.46-2.34l-6.19-9.81c-1.48-2.39-2.97-4.19-4.46-5.4-1.5-1.21-3.3-1.81-5.41-1.81h-7.56v17.09c0,.91-.32,1.68-.97,2.3-.65.62-1.42.93-2.34.93h-6.61c-.91,0-1.7-.33-2.36-1-.66-.67-.98-1.46-.98-2.37v-43.7c0-.91.33-1.71.98-2.39.66-.68,1.44-1.02,2.36-1.02h6.61c.91,0,1.69.34,2.34,1.02.64.68.97,1.48.97,2.39v16.84h7.56c2.06,0,3.87-.56,5.43-1.69,1.56-1.12,3.04-2.94,4.45-5.45l5.45-9.7c1.24-2.25,2.93-3.39,5.06-3.41h8.12c1.12,0,1.69.49,1.69,1.48,0,.54-.2,1.18-.6,1.93l-7.63,13.82c-1.1,2.02-2.34,3.68-3.71,4.99-1.37,1.31-3.16,2.24-5.36,2.78,1.55.33,3.13,1.3,4.76,2.92,1.63,1.62,3.06,3.38,4.31,5.27l8.79,13.99c.4.68.6,1.27.6,1.76Z"/>
    <path class="cls-1" d="m411.82,282c-4.79,4.21-11.82,6.31-21.09,6.31s-16.31-2.1-21.11-6.31c-4.8-4.21-7.21-10.87-7.21-19.99s2.4-15.77,7.21-19.97c4.8-4.2,11.84-6.29,21.11-6.29s16.3,2.1,21.09,6.29c4.79,4.2,7.19,10.85,7.19,19.97s-2.4,15.78-7.19,19.99Zm-9.62-32.54c-2.37-2.81-6.19-4.22-11.48-4.22s-9.12,1.41-11.5,4.22c-2.38,2.81-3.57,7-3.57,12.57s1.19,9.75,3.57,12.55c2.38,2.8,6.21,4.2,11.5,4.2s9.11-1.4,11.48-4.2c2.37-2.8,3.55-6.98,3.55-12.55s-1.18-9.76-3.55-12.57Z"/>
    <path class="cls-1" d="m426.22,240.15c0-.91.33-1.7.98-2.36s1.44-.98,2.36-.98h28.58c7.01,0,12.18,2.02,15.5,6.05,1.85,2.23,2.78,5.07,2.78,8.53s-1.58,6.47-4.75,9.05c4.5,2.41,6.75,6.16,6.75,11.25s-1.8,8.95-5.4,11.58c-3.6,2.64-8.01,3.96-13.24,3.96h-30.23c-.91,0-1.7-.32-2.36-.97-.66-.64-.98-1.42-.98-2.34v-43.77Zm13.25,16.24h18.81c1.48,0,2.66-.44,3.55-1.32.89-.88,1.34-2.11,1.34-3.69s-.45-2.82-1.34-3.71c-.89-.89-2.07-1.34-3.55-1.34h-18.81v10.05Zm0,21.34h20.11c1.8,0,3.19-.54,4.15-1.62.96-1.08,1.44-2.55,1.44-4.43s-.48-3.35-1.44-4.43c-.96-1.08-2.34-1.62-4.15-1.62h-20.11v12.09Z"/>
    <path class="cls-1" d="m485.63,283.84v-43.7c0-.96.32-1.76.95-2.39s1.43-.95,2.39-.95h6.61c.91,0,1.69.33,2.34.98.64.66.97,1.44.97,2.36v13.82h14.48c5.51,0,10.08,1.46,13.71,4.39,3.63,2.93,5.45,7.01,5.45,12.23s-1.82,9.3-5.45,12.23c-3.63,2.93-8.2,4.39-13.71,4.39h-24.57c-.84,0-1.58-.33-2.21-1s-.95-1.46-.95-2.37Zm13.25-6.57h14.48c3.94,0,5.91-2.23,5.91-6.7s-1.97-6.7-5.91-6.7h-14.48v13.39Zm40.68,6.71v-43.84c0-.91.33-1.7.98-2.36.66-.66,1.44-.98,2.36-.98h6.68c.96,0,1.76.33,2.41.98.64.66.97,1.44.97,2.36v43.77c0,.91-.33,1.69-1,2.34-.67.65-1.46.97-2.37.97h-6.68c-.91,0-1.7-.31-2.36-.93-.66-.62-.98-1.39-.98-2.3Z"/>
    <path class="cls-1" d="m563.05,283.91v-43.77c0-.96.32-1.76.95-2.39s1.43-.95,2.39-.95h6.19c.91,0,1.69.32,2.34.95s.97,1.41.97,2.32v35.19l20-35.12c.54-.91,1.28-1.7,2.21-2.36.94-.66,1.8-.98,2.6-.98h10.37c.91,0,1.69.33,2.32.98.63.66.95,1.44.95,2.36v43.77c0,.91-.33,1.69-.98,2.34-.66.65-1.44.97-2.36.97h-6.19c-.91,0-1.69-.32-2.34-.97-.64-.64-.97-1.42-.97-2.34v-32.62l-18.35,32.62c-.54.91-1.3,1.69-2.29,2.34-.98.65-1.93.97-2.85.97h-11.64c-.91,0-1.7-.32-2.36-.97-.66-.64-.98-1.42-.98-2.34Zm13.85-61.49c0-1.2.64-1.79,1.93-1.79h2.88c1.15,0,1.96.6,2.43,1.79.68,1.66,2.2,2.5,4.55,2.5s3.86-.83,4.52-2.5c.49-1.2,1.31-1.79,2.46-1.79h2.88c1.29,0,1.93.6,1.93,1.79,0,3.21-1.08,5.75-3.23,7.63-2.16,1.88-5.01,2.81-8.56,2.81s-6.4-.94-8.56-2.81c-2.16-1.88-3.23-4.42-3.23-7.63Z"/>
  </g>
  <g>
    <path class="cls-1" d="m659.32,310.63l20.83-79.02c5.64-21.53,24.02-32.32,55.12-32.37h44.74c2.05,0,3.75.78,5.1,2.32,1.36,1.55,2.03,3.35,2.03,5.4v103.68c0,2.16-.78,3.97-2.32,5.44-1.55,1.47-3.4,2.2-5.56,2.2h-15.61c-2.27,0-4.14-.73-5.6-2.2-1.47-1.47-2.2-3.33-2.2-5.6v-20.92h-59.02l-5.56,20.92c-.55,2.27-1.8,4.14-3.74,5.6-1.94,1.47-3.98,2.2-6.14,2.2h-16.35c-2.16,0-3.71-.62-4.65-1.87-.94-1.25-1.4-2.34-1.37-3.28.03-.94.12-1.77.29-2.49Zm43.66-44.58h52.88v-43.33h-23.66c-5.31,0-9.95,1.51-13.9,4.52-3.96,3.02-6.63,7.07-8.01,12.16l-7.3,26.65Z"/>
    <path class="cls-1" d="m819.49,304.24c-10.27-9.79-15.4-24.94-15.4-45.45s5.13-35.67,15.4-45.49c10.26-9.82,25.66-14.73,46.19-14.73h18.51c12.56,0,23.67,3.27,33.33,9.79,9.66,6.53,14.48,15.47,14.48,26.81,0,3.27-.97,5.6-2.91,7.01-1.94,1.41-3.82,2.12-5.64,2.12h-9.88c-5.09,0-9.05-3.04-11.87-9.13-4.1-8.74-10.9-13.12-20.42-13.12h-14.78c-12.12,0-20.34,2.6-24.65,7.8-4.32,5.2-6.47,14.83-6.47,28.89s2.16,23.7,6.47,28.93,12.53,7.84,24.65,7.84h16.52c9.52,0,16.3-4.37,20.34-13.12,2.82-6.14,6.81-9.21,11.95-9.21h9.88c2.6,0,4.66.97,6.18,2.91,1.52,1.94,2.28,4.04,2.28,6.31,0,11.34-4.81,20.27-14.44,26.77-9.63,6.5-20.72,9.75-33.29,9.75h-20.25c-20.53,0-35.93-4.9-46.19-14.69Z"/>
  </g>
</svg>